<svg height="65" viewBox="0 0 32 32" width="65" fill="none" xmlns="http://www.w3.org/2000/svg">
  <path d="M15.5151 6.8292C17.8579 6.74083 20.139 7.55723 21.8575 9.09918C23.5761 10.6411 24.5918 12.7827 24.6817 15.0537L31.1159 14.8052C31.0028 11.877 29.9966 9.0492 28.2245 6.67929C26.4523 4.30938 23.9938 2.50384 21.16 1.49103C18.3261 0.478222 15.2441 0.303642 12.3037 0.989311C9.36324 1.67498 6.69644 3.19009 4.64057 5.34312C2.58469 7.49615 1.23202 10.1904 0.753652 13.0851C0.275284 15.9798 0.692712 18.945 1.95309 21.6056C3.21347 24.2663 5.2602 26.5029 7.83451 28.0328C10.4088 29.5626 13.3951 30.3169 16.4156 30.2003L16.1747 23.9627C13.853 24.018 11.6042 23.1859 9.91391 21.646C8.22361 20.106 7.22747 17.9818 7.1406 15.7321C7.05372 13.4824 7.88307 11.2877 9.44957 9.622C11.0161 7.95627 13.194 6.95314 15.5131 6.82927L15.5151 6.8292Z" fill="#687BEA"></path>
  <path d="M22.2839 15.397H15.8448C15.8497 19.3251 17.4615 23.0909 20.3267 25.8685C23.1918 28.646 27.0764 30.2086 31.1283 30.2133V23.9711C28.7833 23.969 26.5349 23.065 24.8768 21.4575C23.2186 19.85 22.2861 17.6704 22.2839 15.397Z" fill="#687BEA"></path>
</svg>
